<svg xmlns="http://www.w3.org/2000/svg" version="1.1" xmlns:xlink="http://www.w3.org/1999/xlink" xmlns:svgjs="http://svgjs.dev/svgjs" width="1000" height="1000" viewBox="0 0 1000 1000">
	<rect width="250" height="250" fill="#000000">
		
	</rect><g transform="matrix(0.7,0,0,0.7,150,106.25)">
	<svg viewBox="0 0 320 360" data-background-color="#00ffef" preserveAspectRatio="xMidYMid meet" height="1125" width="1000" xmlns="http://www.w3.org/2000/svg" xmlns:xlink="http://www.w3.org/1999/xlink">
		<g id="tight-bounds" transform="matrix(1,0,0,1,0,0)">
			<svg viewBox="0 0 320 360" height="360" width="320">
				<g>
					<svg>
						
					</svg>
				</g>
				<g>
					<svg viewBox="0 0 320 360" height="360" width="320">
						<g>
							<path xmlns="http://www.w3.org/2000/svg" d="M320 187.111c0-45.764-20.238-86.866-52.203-114.908-28.043-31.964-69.145-52.203-114.908-52.203-84.302 0-152.889 68.587-152.889 152.889 0 45.753 20.231 86.848 52.185 114.891 28.043 31.975 69.152 52.22 114.926 52.22 0.299 0 0.59-0.021 0.889-0.021 0.299 0 0.59 0.021 0.889 0.021 83.456 0 151.111-67.655 151.111-151.111 0-0.299-0.021-0.59-0.021-0.889 0-0.299 0.021-0.59 0.021-0.889zM59.833 263.097c-15.093-21.255-24.071-47.143-24.256-75.097 0.48-72.928 59.492-131.943 132.423-132.423 27.954 0.185 53.845 9.163 75.097 24.256 24.366 23.627 39.57 56.64 39.57 93.056 0 71.559-58.219 129.778-129.778 129.778-36.416 0-69.429-15.204-93.056-39.57zM3.556 172.889c0-82.343 66.99-149.333 149.333-149.333 35.051 0 67.292 12.167 92.8 32.462-22.98-13.824-49.863-21.796-78.578-21.796-84.302 0-152.889 68.587-152.889 152.889 0 28.708 7.968 55.584 21.785 78.56-20.288-25.5-32.452-57.739-32.451-92.782zM167.111 318.667c-35.84 0-68.363-14.418-92.107-37.743 21.952 15.89 48.864 25.298 77.885 25.298 73.522 0 133.333-59.812 133.333-133.333 0-29.02-9.408-55.932-25.298-77.885 23.324 23.744 37.742 56.267 37.743 92.107 0 72.54-59.015 131.556-131.556 131.556z" fill="#010c80" fill-rule="nonzero" stroke="none" stroke-width="1" stroke-linecap="butt" stroke-linejoin="miter" stroke-miterlimit="10" stroke-dasharray="" stroke-dashoffset="0" font-family="none" font-weight="none" font-size="none" text-anchor="none" style="mix-blend-mode: normal" data-fill-palette-color="tertiary">
								
							</path></g><g transform="matrix(1,0,0,1,64,128.36010459469554)">
							<svg viewBox="0 0 192 103.27979081060889" height="103.27979081060889" width="192">
								<g><svg viewBox="0 0 192 103.27979081060889" height="103.27979081060889" width="192">
									<g>
										<svg viewBox="0 0 192 103.27979081060889" height="103.27979081060889" width="192">
											<g><svg viewBox="0 0 192 103.27979081060889" height="103.27979081060889" width="192">
												<g><svg viewBox="0 0 192 103.27979081060889" height="103.27979081060889" width="192">
													<g><svg viewBox="0 0 192 103.27979081060889" height="103.27979081060889" width="192">
														<g transform="matrix(1,0,0,1,0,0)">
															<svg width="192" viewBox="2.2699999809265137 -35.15999984741211 65.35000610351562 35.15999984741211" height="103.27979081060889" data-palette-color="#010c80">
																<path d="M11.06-35.16L11.06 0 9.3 0 9.3-35.16 11.06-35.16ZM7.54-35.16L7.54 0 5.79 0 5.79-35.16 7.54-35.16ZM4.03-35.16L4.03 0 2.27 0 2.27-35.16 4.03-35.16ZM14.58-13.21L14.58-8.79 31.4-8.79 31.4-7.03 14.58-7.03 14.58-5.27 31.4-5.27 31.4-3.52 14.58-3.52 14.58-1.76 31.4-1.76 31.4 0 12.82 0 12.82-35.16 31.4-35.16 31.4-33.4 14.58-33.4 14.58-31.64 31.4-31.64 31.4-29.88 14.58-29.88 14.58-28.13 31.4-28.13 31.4-26.37 14.58-26.37 14.58-22 30.42-22 30.42-20.24 14.58-20.24 14.58-18.48 30.42-18.48 30.42-16.72 14.58-16.72 14.58-14.97 30.42-14.97 30.42-13.21 14.58-13.21ZM63.16-17.77L63.16-17.77 63.11-17.8Q65.87-20.48 65.87-24.34L65.87-24.34Q65.87-28 63.14-30.7 60.42-33.4 56.71-33.4L56.71-33.4 37.38-33.4 37.38 0 35.62 0 35.62-35.16 56.71-35.16Q59.59-35.16 62.12-33.68 64.65-32.2 66.14-29.7 67.62-27.2 67.62-24.34L67.62-24.34Q67.62-20.43 65.52-17.63L65.52-17.63Q67.62-14.72 67.62-11.23L67.62-11.23Q67.62-7.89 66.11-5.33 64.6-2.78 62.14-1.49 59.69-0.2 56.71-0.2L56.71-0.2 45.6-0.2 45.6-1.95 56.71-1.95Q60.47-1.95 63.17-4.63 65.87-7.3 65.87-11.23L65.87-11.23Q65.87-13.04 65.09-14.79 64.3-16.55 63.13-17.75L63.13-17.75Q63.13-17.77 63.16-17.77ZM56.71-8.98L56.71-8.98 45.6-8.98 45.6-7.23 56.71-7.23Q58.32-7.23 59.46-8.31 60.59-9.4 60.59-11.23L60.59-11.23Q60.59-12.82 59.42-14.03 58.25-15.23 56.71-15.23L56.71-15.23 45.58-15.23 45.58-13.48 56.71-13.48Q57.54-13.48 58.19-12.79 58.84-12.11 58.84-11.23L58.84-11.23Q58.84-10.16 58.23-9.57 57.61-8.98 56.71-8.98ZM56.71-5.47L56.71-5.47 45.6-5.47 45.6-3.71 56.71-3.71Q59.74-3.71 61.92-5.87 64.11-8.03 64.11-11.23L64.11-11.23Q64.11-13.26 63.02-15.05 61.94-16.85 60.15-17.82L60.15-17.82Q61.94-18.75 63.02-20.47 64.11-22.19 64.11-24.34L64.11-24.34Q64.11-27.27 61.9-29.46 59.69-31.64 56.71-31.64L56.71-31.64 39.13-31.64 39.13 0 40.89 0 40.89-29.88 56.71-29.88Q58.96-29.88 60.65-28.21 62.35-26.54 62.35-24.34L62.35-24.34Q62.35-21.9 60.69-20.32 59.03-18.75 56.71-18.75L56.71-18.75 51.34-18.75 45.6-18.75 45.6-16.99 51.34-16.99 56.71-16.99Q58.96-16.99 60.65-15.26 62.35-13.53 62.35-11.23L62.35-11.23Q62.35-8.69 60.69-7.08 59.03-5.47 56.71-5.47ZM56.71-22.27L56.71-22.27 45.6-22.27 45.6-20.51 56.71-20.51Q58.35-20.51 59.47-21.55 60.59-22.58 60.59-24.34L60.59-24.34Q60.59-25.83 59.42-26.98 58.25-28.13 56.71-28.13L56.71-28.13 42.65-28.13 42.65 0 44.41 0 44.41-26.37 56.71-26.37Q57.54-26.37 58.19-25.74 58.84-25.12 58.84-24.34L58.84-24.34Q58.84-23.34 58.23-22.8 57.61-22.27 56.71-22.27Z" opacity="1" transform="matrix(1,0,0,1,0,0)" fill="#ffffff" class="undefined-text-0" data-fill-palette-color="primary" id="text-0">
																</path>
															</svg>
														</g>
													</svg>
												</g>
											</svg>
										</g>
									</svg>
								</g>
							</svg>
						</g>
					</svg>
				</g>
			</svg>
		</g>
	</svg>
</g>
<defs>
	
</defs>
</svg>
<rect width="320" height="360" fill="none" stroke="none" visibility="hidden">
	
</rect>
</g>
</svg>
</g>
</svg>