{
  "accessors": [
    {
      "bufferView": 2,
      "componentType": 5126,
      "count": 65534,
      "max": [
        0.5718889832496643,
        0.5347620248794556,
        0.991254985332489
      ],
      "min": [
        -0.5719079971313477,
        -0.5380970239639282,
        -0.9754689931869507
      ],
      "type": "VEC3"
    },
    {
      "bufferView": 2,
      "byteOffset": 786408,
      "componentType": 5126,
      "count": 65534,
      "max": [
        0.999987006187439,
        0.9997031092643738,
        0.9966727495193481
      ],
      "min": [
        -0.9999850988388062,
        -0.999177098274231,
        -0.9981970191001892
      ],
      "type": "VEC3"
    },
    {
      "bufferView": 3,
      "componentType": 5126,
      "count": 65534,
      "max": [
        0.9998113512992859,
        0.9790685176849365,
        0.9999976754188538,
        1.0
      ],
      "min": [
        -0.9999953508377075,
        -0.9909743666648865,
        -0.9146197438240051,
        -1.0
      ],
      "type": "VEC4"
    },
    {
      "bufferView": 1,
      "componentType": 5126,
      "count": 65534,
      "max": [
        0.5790479779243469,
        0.27074700593948364
      ],
      "min": [
        0.15771299600601196,
        0.02381560020148754
      ],
      "type": "VEC2"
    },
    {
      "bufferView": 0,
      "componentType": 5125,
      "count": 289899,
      "type": "SCALAR"
    },
    {
      "bufferView": 2,
      "byteOffset": 1572816,
      "componentType": 5126,
      "count": 65532,
      "max": [
        0.5715500116348267,
        0.5352960228919983,
        0.889814019203186
      ],
      "min": [
        -0.5715680122375488,
        -0.5380970239639282,
        -0.9754689931869507
      ],
      "type": "VEC3"
    },
    {
      "bufferView": 2,
      "byteOffset": 2359200,
      "componentType": 5126,
      "count": 65532,
      "max": [
        0.9999992251396179,
        0.9998459815979004,
        0.999760627746582
      ],
      "min": [
        -0.9999992251396179,
        -0.9999426603317261,
        -0.999963104724884
      ],
      "type": "VEC3"
    },
    {
      "bufferView": 3,
      "byteOffset": 1048544,
      "componentType": 5126,
      "count": 65532,
      "max": [
        0.9999887943267822,
        0.9916185140609741,
        0.9999873638153076,
        1.0
      ],
      "min": [
        -0.9999991655349731,
        -0.99029940366745,
        -0.7686679363250732,
        -1.0
      ],
      "type": "VEC4"
    },
    {
      "bufferView": 1,
      "byteOffset": 524272,
      "componentType": 5126,
      "count": 65532,
      "max": [
        0.5576159954071045,
        0.2708590030670166
      ],
      "min": [
        0.15771299600601196,
        0.023688599467277527
      ],
      "type": "VEC2"
    },
    {
      "bufferView": 0,
      "byteOffset": 1159596,
      "componentType": 5125,
      "count": 242757,
      "type": "SCALAR"
    },
    {
      "bufferView": 2,
      "byteOffset": 3145584,
      "componentType": 5126,
      "count": 6915,
      "max": [
        0.16300199925899506,
        0.42275699973106384,
        -0.11569099873304367
      ],
      "min": [
        -0.16484400629997253,
        -0.36066898703575134,
        -0.9754689931869507
      ],
      "type": "VEC3"
    },
    {
      "bufferView": 2,
      "byteOffset": 3228564,
      "componentType": 5126,
      "count": 6915,
      "max": [
        0.9998096227645874,
        0.9987413287162781,
        0.9851303696632385
      ],
      "min": [
        -0.999987006187439,
        -0.9947906136512756,
        -0.8605005741119385
      ],
      "type": "VEC3"
    },
    {
      "bufferView": 3,
      "byteOffset": 2097056,
      "componentType": 5126,
      "count": 6915,
      "max": [
        0.9977044463157654,
        0.8738061189651489,
        0.9999561905860901,
        1.0
      ],
      "min": [
        -0.9998300671577454,
        -0.9793789386749268,
        -0.5839715600013733,
        -1.0
      ],
      "type": "VEC4"
    },
    {
      "bufferView": 1,
      "byteOffset": 1048528,
      "componentType": 5126,
      "count": 6915,
      "max": [
        0.3438659906387329,
        0.2400449961423874
      ],
      "min": [
        0.15885399281978607,
        0.06055879965424538
      ],
      "type": "VEC2"
    },
    {
      "bufferView": 0,
      "byteOffset": 2130624,
      "componentType": 5125,
      "count": 30168,
      "type": "SCALAR"
    },
    {
      "bufferView": 2,
      "byteOffset": 3311544,
      "componentType": 5126,
      "count": 65532,
      "max": [
        0.17006899416446686,
        0.43990400433540344,
        -0.09791909903287888
      ],
      "min": [
        -0.16815200448036194,
        -0.3835580050945282,
        -1.00409996509552
      ],
      "type": "VEC3"
    },
    {
      "bufferView": 2,
      "byteOffset": 4097928,
      "componentType": 5126,
      "count": 65532,
      "max": [
        0.9999997615814209,
        0.9996927380561829,
        0.9965618848800659
      ],
      "min": [
        -0.9999972581863403,
        -0.9999937415122986,
        -0.9999833703041077
      ],
      "type": "VEC3"
    },
    {
      "bufferView": 3,
      "byteOffset": 2207696,
      "componentType": 5126,
      "count": 65532,
      "max": [
        0.9996504783630371,
        0.8738409280776978,
        0.9979367256164551,
        1.0
      ],
      "min": [
        -0.9990621209144592,
        -0.9826643466949463,
        -0.9999994039535522,
        -1.0
      ],
      "type": "VEC4"
    },
    {
      "bufferView": 1,
      "byteOffset": 1103848,
      "componentType": 5126,
      "count": 65532,
      "max": [
        0.8935840129852295,
        0.9960939884185791
      ],
      "min": [
        0.5564460158348083,
        0.00390625
      ],
      "type": "VEC2"
    },
    {
      "bufferView": 0,
      "byteOffset": 2251296,
      "componentType": 5125,
      "count": 367596,
      "type": "SCALAR"
    },
    {
      "bufferView": 2,
      "byteOffset": 4884312,
      "componentType": 5126,
      "count": 65532,
      "max": [
        0.2372789978981018,
        0.5636619925498962,
        0.9959030151367188
      ],
      "min": [
        -0.17695599794387817,
        -0.3812220096588135,
        -1.0040099620819092
      ],
      "type": "VEC3"
    },
    {
      "bufferView": 2,
      "byteOffset": 5670696,
      "componentType": 5126,
      "count": 65532,
      "max": [
        0.9999989867210388,
        0.9999587535858154,
        0.9993614554405212
      ],
      "min": [
        -0.9999953508377075,
        -0.9999973773956299,
        -0.9991432428359985
      ],
      "type": "VEC3"
    },
    {
      "bufferView": 3,
      "byteOffset": 3256208,
      "componentType": 5126,
      "count": 65532,
      "max": [
        0.9949278235435486,
        0.9999871253967285,
        0.9999939203262329,
        1.0
      ],
      "min": [
        -0.9984906911849976,
        -0.9984490275382996,
        -0.999997615814209,
        -1.0
      ],
      "type": "VEC4"
    },
    {
      "bufferView": 1,
      "byteOffset": 1628104,
      "componentType": 5126,
      "count": 65532,
      "max": [
        0.8893849849700928,
        0.9960939884185791
      ],
      "min": [
        0.09949369728565216,
        0.009684000164270401
      ],
      "type": "VEC2"
    },
    {
      "bufferView": 0,
      "byteOffset": 3721680,
      "componentType": 5125,
      "count": 322320,
      "type": "SCALAR"
    },
    {
      "bufferView": 2,
      "byteOffset": 6457080,
      "componentType": 5126,
      "count": 65532,
      "max": [
        0.5863760113716125,
        0.3757779896259308,
        0.9959030151367188
      ],
      "min": [
        -0.5863760113716125,
        -0.2825250029563904,
        -0.18524399399757385
      ],
      "type": "VEC3"
    },
    {
      "bufferView": 2,
      "byteOffset": 7243464,
      "componentType": 5126,
      "count": 65532,
      "max": [
        0.9999381303787231,
        0.999950647354126,
        0.9993614554405212
      ],
      "min": [
        -0.9999907612800598,
        -0.9999973773956299,
        -0.9992634654045105
      ],
      "type": "VEC3"
    },
    {
      "bufferView": 3,
      "byteOffset": 4304720,
      "componentType": 5126,
      "count": 65532,
      "max": [
        0.9999851584434509,
        0.9999727606773376,
        0.9999786019325256,
        1.0
      ],
      "min": [
        -0.9999436736106873,
        -0.9944213032722473,
        -0.9999762177467346,
        -1.0
      ],
      "type": "VEC4"
    },
    {
      "bufferView": 1,
      "byteOffset": 2152360,
      "componentType": 5126,
      "count": 65532,
      "max": [
        0.6326910257339478,
        0.7489100098609924
      ],
      "min": [
        0.09833469986915588,
        0.25102201104164124
      ],
      "type": "VEC2"
    },
    {
      "bufferView": 0,
      "byteOffset": 5010960,
      "componentType": 5125,
      "count": 349287,
      "type": "SCALAR"
    },
    {
      "bufferView": 2,
      "byteOffset": 8029848,
      "componentType": 5126,
      "count": 31686,
      "max": [
        0.22775399684906006,
        0.5562319755554199,
        0.39069199562072754
      ],
      "min": [
        -0.22777299582958221,
        -0.5665730237960815,
        -0.30932098627090454
      ],
      "type": "VEC3"
    },
    {
      "bufferView": 2,
      "byteOffset": 8410080,
      "componentType": 5126,
      "count": 31686,
      "max": [
        0.9999997615814209,
        0.9660532474517822,
        0.9817483425140381
      ],
      "min": [
        -0.9999970197677612,
        -0.9998917579650879,
        -0.9992735385894775
      ],
      "type": "VEC3"
    },
    {
      "bufferView": 3,
      "byteOffset": 5353232,
      "componentType": 5126,
      "count": 31686,
      "max": [
        0.9996981620788574,
        0.9999443292617798,
        0.9999958276748657,
        1.0
      ],
      "min": [
        -0.9999168515205383,
        -0.9999826550483704,
        -0.9999924898147583,
        -1.0
      ],
      "type": "VEC4"
    },
    {
      "bufferView": 1,
      "byteOffset": 2676616,
      "componentType": 5126,
      "count": 31686,
      "max": [
        0.6288459897041321,
        0.7019309997558594
      ],
      "min": [
        0.00390625,
        0.29983699321746826
      ],
      "type": "VEC2"
    },
    {
      "bufferView": 0,
      "byteOffset": 6408108,
      "componentType": 5125,
      "count": 182685,
      "type": "SCALAR"
    }
  ],
  "asset": {
    "extras": {
      "author": "Scott Thompson (https://sketchfab.com/SelflessWon)",
      "license": "CC-BY-4.0 (http://creativecommons.org/licenses/by/4.0/)",
      "source": "https://sketchfab.com/3d-models/what-if-deep-sea-goldfish-species-37dd467aa9e84ff6ba55d69ac0e4d36d",
      "title": "What if Deep Sea Goldfish Species"
    },
    "generator": "Sketchfab-12.67.0",
    "version": "2.0"
  },
  "bufferViews": [
    {
      "buffer": 0,
      "byteLength": 7138848,
      "name": "floatBufferViews",
      "target": 34963
    },
    {
      "buffer": 0,
      "byteLength": 2930104,
      "byteOffset": 7138848,
      "byteStride": 8,
      "name": "floatBufferViews",
      "target": 34962
    },
    {
      "buffer": 0,
      "byteLength": 8790312,
      "byteOffset": 10068952,
      "byteStride": 12,
      "name": "floatBufferViews",
      "target": 34962
    },
    {
      "buffer": 0,
      "byteLength": 5860208,
      "byteOffset": 18859264,
      "byteStride": 16,
      "name": "floatBufferViews",
      "target": 34962
    }
  ],
  "buffers": [
    {
      "byteLength": 24719472,
      "uri": "scene.bin"
    }
  ],
  "extensionsUsed": [
    "KHR_materials_clearcoat"
  ],
  "images": [
    {
      "uri": "textures/default_baseColor.png"
    },
    {
      "uri": "textures/default_metallicRoughness.png"
    },
    {
      "uri": "textures/default_emissive.jpeg"
    },
    {
      "uri": "textures/default_normal.png"
    },
    {
      "uri": "textures/default2_baseColor.jpeg"
    },
    {
      "uri": "textures/default2_metallicRoughness.png"
    }
  ],
  "materials": [
    {
      "alphaMode": "BLEND",
      "doubleSided": true,
      "emissiveFactor": [
        0.7096440537170794,
        0.7096440537170794,
        0.7096440537170794
      ],
      "emissiveTexture": {
        "index": 2
      },
      "extensions": {
        "KHR_materials_clearcoat": {
          "clearcoatFactor": 1.0,
          "clearcoatRoughnessFactor": 0.3036688078874312
        }
      },
      "name": "default",
      "normalTexture": {
        "index": 3
      },
      "occlusionTexture": {
        "index": 1
      },
      "pbrMetallicRoughness": {
        "baseColorTexture": {
          "index": 0
        },
        "metallicRoughnessTexture": {
          "index": 1
        },
        "roughnessFactor": 0.1904612607176199
      }
    },
    {
      "doubleSided": true,
      "name": "default2",
      "normalTexture": {
        "index": 3
      },
      "occlusionTexture": {
        "index": 5
      },
      "pbrMetallicRoughness": {
        "baseColorTexture": {
          "index": 4
        },
        "metallicRoughnessTexture": {
          "index": 5
        }
      }
    }
  ],
  "meshes": [
    {
      "name": "defaultMaterial",
      "primitives": [
        {
          "attributes": {
            "NORMAL": 1,
            "POSITION": 0,
            "TANGENT": 2,
            "TEXCOORD_0": 3
          },
          "indices": 4,
          "material": 1,
          "mode": 4
        }
      ]
    },
    {
      "name": "defaultMaterial",
      "primitives": [
        {
          "attributes": {
            "NORMAL": 6,
            "POSITION": 5,
            "TANGENT": 7,
            "TEXCOORD_0": 8
          },
          "indices": 9,
          "material": 1,
          "mode": 4
        }
      ]
    },
    {
      "name": "defaultMaterial",
      "primitives": [
        {
          "attributes": {
            "NORMAL": 11,
            "POSITION": 10,
            "TANGENT": 12,
            "TEXCOORD_0": 13
          },
          "indices": 14,
          "material": 1,
          "mode": 4
        }
      ]
    },
    {
      "name": "defaultMaterial",
      "primitives": [
        {
          "attributes": {
            "NORMAL": 16,
            "POSITION": 15,
            "TANGENT": 17,
            "TEXCOORD_0": 18
          },
          "indices": 19,
          "material": 0,
          "mode": 4
        }
      ]
    },
    {
      "name": "defaultMaterial",
      "primitives": [
        {
          "attributes": {
            "NORMAL": 21,
            "POSITION": 20,
            "TANGENT": 22,
            "TEXCOORD_0": 23
          },
          "indices": 24,
          "material": 0,
          "mode": 4
        }
      ]
    },
    {
      "name": "defaultMaterial",
      "primitives": [
        {
          "attributes": {
            "NORMAL": 26,
            "POSITION": 25,
            "TANGENT": 27,
            "TEXCOORD_0": 28
          },
          "indices": 29,
          "material": 0,
          "mode": 4
        }
      ]
    },
    {
      "name": "defaultMaterial",
      "primitives": [
        {
          "attributes": {
            "NORMAL": 31,
            "POSITION": 30,
            "TANGENT": 32,
            "TEXCOORD_0": 33
          },
          "indices": 34,
          "material": 0,
          "mode": 4
        }
      ]
    }
  ],
  "nodes": [
    {
      "children": [
        1
      ],
      "matrix": [
        1.0,
        0.0,
        0.0,
        0.0,
        0.0,
        2.220446049250313e-16,
        -1.0,
        0.0,
        0.0,
        1.0,
        2.220446049250313e-16,
        0.0,
        0.0,
        0.0,
        0.0,
        1.0
      ],
      "name": "Sketchfab_model"
    },
    {
      "children": [
        2,
        6
      ],
      "matrix": [
        1.0,
        0.0,
        0.0,
        0.0,
        0.0,
        -4.371139006309477e-08,
        0.999999999999999,
        0.0,
        0.0,
        -0.999999999999999,
        -4.371139006309477e-08,
        0.0,
        0.0,
        0.0,
        0.0,
        1.0
      ],
      "name": "Collada visual scene group"
    },
    {
      "children": [
        3,
        4,
        5
      ],
      "name": "g"
    },
    {
      "mesh": 0,
      "name": "defaultMaterial"
    },
    {
      "mesh": 1,
      "name": "defaultMaterial"
    },
    {
      "mesh": 2,
      "name": "defaultMaterial"
    },
    {
      "children": [
        7,
        8,
        9,
        10
      ],
      "name": "g"
    },
    {
      "mesh": 3,
      "name": "defaultMaterial"
    },
    {
      "mesh": 4,
      "name": "defaultMaterial"
    },
    {
      "mesh": 5,
      "name": "defaultMaterial"
    },
    {
      "mesh": 6,
      "name": "defaultMaterial"
    }
  ],
  "samplers": [
    {
      "magFilter": 9729,
      "minFilter": 9987,
      "wrapS": 10497,
      "wrapT": 10497
    }
  ],
  "scene": 0,
  "scenes": [
    {
      "name": "Sketchfab_Scene",
      "nodes": [
        0
      ]
    }
  ],
  "textures": [
    {
      "sampler": 0,
      "source": 0
    },
    {
      "sampler": 0,
      "source": 1
    },
    {
      "sampler": 0,
      "source": 2
    },
    {
      "sampler": 0,
      "source": 3
    },
    {
      "sampler": 0,
      "source": 4
    },
    {
      "sampler": 0,
      "source": 5
    }
  ]
}
